<?xml version="1.0" standalone="no"?>
<!DOCTYPE svg PUBLIC "-//W3C//DTD SVG 20010904//EN"
 "http://www.w3.org/TR/2001/REC-SVG-20010904/DTD/svg10.dtd">
<svg version="1.0" xmlns="http://www.w3.org/2000/svg"
 width="418.000000pt" height="418.000000pt" viewBox="0 0 418.000000 418.000000"
 preserveAspectRatio="xMidYMid meet">

<g transform="translate(0.000000,418.000000) scale(0.100000,-0.100000)"
fill="#000000" stroke="none">
<path d="M1075 3438 c-2 -7 -223 -634 -490 -1392 -267 -759 -485 -1381 -485
-1383 0 -2 120 -3 268 -3 l267 0 115 345 115 345 525 0 525 0 116 -343 117
-342 266 -3 c146 -1 266 0 266 4 0 3 -167 479 -371 1057 -204 579 -424 1203
-489 1387 l-118 335 -311 3 c-244 2 -312 0 -316 -10z m510 -1103 c100 -297
185 -550 189 -562 l7 -23 -390 0 c-215 0 -391 1 -391 3 0 2 363 1081 375 1115
3 8 10 12 16 10 7 -2 94 -247 194 -543z"/>
<path d="M3090 3183 c0 -5 78 -136 174 -293 159 -262 175 -285 202 -287 28 -3
35 7 206 292 l177 295 -379 0 c-209 0 -380 -3 -380 -7z"/>
<path d="M3417 1213 c-126 -203 -328 -545 -325 -549 3 -2 174 -3 381 -2 l376
3 -177 292 c-162 268 -179 293 -204 293 -21 0 -33 -9 -51 -37z"/>
</g>
</svg>
